<svg xmlns:dc="http://purl.org/dc/elements/1.1/" xmlns:cc="http://creativecommons.org/ns#" xmlns:rdf="http://www.w3.org/1999/02/22-rdf-syntax-ns#" xmlns:svg="http://www.w3.org/2000/svg" xmlns="http://www.w3.org/2000/svg" viewBox="0 0 50 50" preserveAspectRatio="xMidYMid meet"><metadata><rdf:RDF><cc:Work><dc:format>image/svg+xml</dc:format><dc:type rdf:resource="http://purl.org/dc/dcmitype/StillImage"/><dc:title>Jdenticon</dc:title><dc:creator><cc:Agent><dc:title>Daniel Mester Pirttijärvi</dc:title></cc:Agent></dc:creator><dc:source>https://github.com/dmester/jdenticon</dc:source><cc:license rdf:resource="https://github.com/dmester/jdenticon/blob/master/LICENSE"/></cc:Work></rdf:RDF></metadata><mask id="avatarsRadiusMask"><rect width="50" height="50" rx="0" ry="0" x="0" y="0" fill="#fff"/></mask><g mask="url(#avatarsRadiusMask)"><path fill="#2e8c7e" d="M25 1L25 13L13 13ZM37 13L25 13L25 1ZM25 49L25 37L37 37ZM13 37L25 37L25 49ZM13 13L13 25L1 25ZM49 25L37 25L37 13ZM37 37L37 25L49 25ZM1 25L13 25L13 37Z"/><path fill="#ace3db" d="M1 1L13 1L13 13ZM49 1L49 13L37 13ZM49 49L37 49L37 37ZM1 49L1 37L13 37Z"/><path fill="#59c7b7" d="M17 17L25 17L25 25L17 25ZM33 17L33 25L25 25L25 17ZM33 33L25 33L25 25L33 25ZM17 33L17 25L25 25L25 33Z"/></g></svg>